HIERARCHY
ROOT Hips
{
	OFFSET 0.000000 35.082581 0.000000
	CHANNELS 6 Xposition Yposition Zposition Xrotation Yrotation Zrotation 
	JOINT Spine
	{
		OFFSET 0.000000 6.876099 0.125700
		CHANNELS 3 Xrotation Yrotation Zrotation
		JOINT Spine1
		{
			OFFSET 0.000000 5.730043 0.104720
			CHANNELS 3 Xrotation Yrotation Zrotation
			JOINT Spine1_split
			{
				OFFSET 0.000000 5.730043 0.104720
				CHANNELS 3 Xrotation Yrotation Zrotation
				JOINT Spine2
				{
					OFFSET 0.000000 5.730043 0.104720
					CHANNELS 3 Xrotation Yrotation Zrotation
					JOINT Neck
					{
						OFFSET 0.000000 10.314075 0.188496
						CHANNELS 3 Xrotation Yrotation Zrotation
						JOINT Head
						{
							OFFSET 0.000000 7.643700 -2.377400
							CHANNELS 3 Xrotation Yrotation Zrotation
							JOINT HeadTop_End
							{
								OFFSET 0.000000 43.788605 -13.619600
								CHANNELS 3 Xrotation Yrotation Zrotation
								End Site
								{
									OFFSET 0.000000 0.000000 0.000000
								}
							}
						}
					}
					JOINT LeftShoulder
					{
						OFFSET 2.196100 4.412489 0.087492
						CHANNELS 3 Xrotation Yrotation Zrotation
						JOINT LeftShoulder_split
						{
							OFFSET 2.196100 4.412489 0.087492
							CHANNELS 3 Xrotation Yrotation Zrotation
							JOINT LeftArm
							{
								OFFSET 8.771219 -2.981674 -0.026999
								CHANNELS 3 Xrotation Yrotation Zrotation
								JOINT LeftForeArm
								{
									OFFSET 8.512804 0.000000 -0.000000
									CHANNELS 3 Xrotation Yrotation Zrotation
									JOINT LeftHand
									{
										OFFSET 18.484802 0.000000 -0.000000
										CHANNELS 3 Xrotation Yrotation Zrotation
										JOINT LeftHandThumb1
										{
											OFFSET 2.499420 -1.158070 2.653252
											CHANNELS 3 Xrotation Yrotation Zrotation
											JOINT LeftHandThumb2
											{
												OFFSET 2.370079 -1.368366 1.368366
												CHANNELS 3 Xrotation Yrotation Zrotation
												JOINT LeftHandThumb3
												{
													OFFSET 2.676727 -1.545410 1.545409
													CHANNELS 3 Xrotation Yrotation Zrotation
													JOINT LeftHandThumb4
													{
														OFFSET 1.692226 -0.977005 0.977007
														CHANNELS 3 Xrotation Yrotation Zrotation
														End Site
														{
															OFFSET 0.000000 0.000000 0.000000
														}
													}
												}
											}
										}
										JOINT LeftHandIndex1
										{
											OFFSET 7.924831 -0.457527 2.345128
											CHANNELS 3 Xrotation Yrotation Zrotation
											JOINT LeftHandIndex2
											{
												OFFSET 3.643303 0.000000 0.000000
												CHANNELS 3 Xrotation Yrotation Zrotation
												JOINT LeftHandIndex3
												{
													OFFSET 3.810799 0.000000 0.000000
													CHANNELS 3 Xrotation Yrotation Zrotation
													JOINT LeftHandIndex4
													{
														OFFSET 2.403702 0.000000 0.000000
														CHANNELS 3 Xrotation Yrotation Zrotation
														End Site
														{
															OFFSET 0.000000 0.000000 0.000000
														}
													}
												}
											}
										}
										JOINT LeftHandMiddle1
										{
											OFFSET 8.563995 0.000000 -0.000000
											CHANNELS 3 Xrotation Yrotation Zrotation
											JOINT LeftHandMiddle2
											{
												OFFSET 3.861618 0.000000 0.000000
												CHANNELS 3 Xrotation Yrotation Zrotation
												JOINT LeftHandMiddle3
												{
													OFFSET 3.701603 0.000000 0.000000
													CHANNELS 3 Xrotation Yrotation Zrotation
													JOINT LeftHandMiddle4
													{
														OFFSET 2.322544 0.000000 0.000000
														CHANNELS 3 Xrotation Yrotation Zrotation
														End Site
														{
															OFFSET 0.000000 0.000000 0.000000
														}
													}
												}
											}
										}
										JOINT LeftHandRing1
										{
											OFFSET 8.426460 -0.424637 -3.286992
											CHANNELS 3 Xrotation Yrotation Zrotation
											JOINT LeftHandRing2
											{
												OFFSET 3.126408 0.000000 0.000000
												CHANNELS 3 Xrotation Yrotation Zrotation
												JOINT LeftHandRing3
												{
													OFFSET 3.085026 0.000000 0.000000
													CHANNELS 3 Xrotation Yrotation Zrotation
													JOINT LeftHandRing4
													{
														OFFSET 1.644005 0.000000 0.000000
														CHANNELS 3 Xrotation Yrotation Zrotation
														End Site
														{
															OFFSET 0.000000 0.000000 0.000000
														}
													}
												}
											}
										}
									}
								}
							}
						}
					}
					JOINT RightShoulder
					{
						OFFSET -2.196100 4.412496 0.070690
						CHANNELS 3 Xrotation Yrotation Zrotation
						JOINT RightShoulder_split
						{
							OFFSET -2.196100 4.412496 0.070690
							CHANNELS 3 Xrotation Yrotation Zrotation
							JOINT RightArm
							{
								OFFSET -8.771282 -2.981682 -0.094208
								CHANNELS 3 Xrotation Yrotation Zrotation
								JOINT RightForeArm
								{
									OFFSET -8.494598 0.000000 0.000000
									CHANNELS 3 Xrotation Yrotation Zrotation
									JOINT RightHand
									{
										OFFSET -18.483803 0.000000 0.000001
										CHANNELS 3 Xrotation Yrotation Zrotation
										JOINT RightHandThumb1
										{
											OFFSET -2.527351 -1.008072 2.575253
											CHANNELS 3 Xrotation Yrotation Zrotation
											JOINT RightHandThumb2
											{
												OFFSET -2.321518 -1.340328 1.340329
												CHANNELS 3 Xrotation Yrotation Zrotation
												JOINT RightHandThumb3
												{
													OFFSET -2.657753 -1.534454 1.534455
													CHANNELS 3 Xrotation Yrotation Zrotation
													JOINT RightHandThumb4
													{
														OFFSET -1.807510 -1.043568 1.043567
														CHANNELS 3 Xrotation Yrotation Zrotation
														End Site
														{
															OFFSET 0.000000 0.000000 0.000000
														}
													}
												}
											}
										}
										JOINT RightHandIndex1
										{
											OFFSET -8.811420 0.015533 2.887987
											CHANNELS 3 Xrotation Yrotation Zrotation
											JOINT RightHandIndex2
											{
												OFFSET -3.537502 0.000000 0.000000
												CHANNELS 3 Xrotation Yrotation Zrotation
												JOINT RightHandIndex3
												{
													OFFSET -3.356201 0.000000 0.000000
													CHANNELS 3 Xrotation Yrotation Zrotation
													JOINT RightHandIndex4
													{
														OFFSET -1.933098 0.000000 0.000000
														CHANNELS 3 Xrotation Yrotation Zrotation
														End Site
														{
															OFFSET 0.000000 0.000000 0.000000
														}
													}
												}
											}
										}
										JOINT RightHandMiddle1
										{
											OFFSET -8.178135 0.000000 0.000000
											CHANNELS 3 Xrotation Yrotation Zrotation
											JOINT RightHandMiddle2
											{
												OFFSET -3.901302 0.000000 0.000000
												CHANNELS 3 Xrotation Yrotation Zrotation
												JOINT RightHandMiddle3
												{
													OFFSET -3.909599 0.000000 0.000000
													CHANNELS 3 Xrotation Yrotation Zrotation
													JOINT RightHandMiddle4
													{
														OFFSET -2.376003 0.000000 0.000000
														CHANNELS 3 Xrotation Yrotation Zrotation
														End Site
														{
															OFFSET 0.000000 0.000000 0.000000
														}
													}
												}
											}
										}
										JOINT RightHandRing1
										{
											OFFSET -7.559013 0.014137 -2.865403
											CHANNELS 3 Xrotation Yrotation Zrotation
											JOINT RightHandRing2
											{
												OFFSET -3.449306 0.000000 0.000000
												CHANNELS 3 Xrotation Yrotation Zrotation
												JOINT RightHandRing3
												{
													OFFSET -3.362106 0.000000 0.000000
													CHANNELS 3 Xrotation Yrotation Zrotation
													JOINT RightHandRing4
													{
														OFFSET -2.076401 0.000000 0.000000
														CHANNELS 3 Xrotation Yrotation Zrotation
														End Site
														{
															OFFSET 0.000000 0.000000 0.000000
														}
													}
												}
											}
										}
									}
								}
							}
						}
					}
				}
			}
		}
	}
	JOINT LeftUpLeg
	{
		OFFSET 10.205400 -3.823500 0.155100
		CHANNELS 3 Xrotation Yrotation Zrotation
		JOINT LeftLeg
		{
			OFFSET 0.708757 -12.982077 0.567790
			CHANNELS 3 Xrotation Yrotation Zrotation
			JOINT LeftFoot
			{
				OFFSET -0.708756 -10.717838 -2.184338
				CHANNELS 3 Xrotation Yrotation Zrotation
				JOINT LeftToeBase
				{
					OFFSET 0.108149 -7.191104 7.560241
					CHANNELS 3 Xrotation Yrotation Zrotation
					JOINT LeftToe_End
					{
						OFFSET 0.070230 0.081724 4.490308
						CHANNELS 3 Xrotation Yrotation Zrotation
						End Site
						{
							OFFSET 0.000000 0.000000 0.000000
						}
					}
				}
			}
		}
	}
	JOINT RightUpLeg
	{
		OFFSET -10.205400 -3.823500 0.005500
		CHANNELS 3 Xrotation Yrotation Zrotation
		JOINT RightLeg
		{
			OFFSET -0.708756 -12.982134 0.610632
			CHANNELS 3 Xrotation Yrotation Zrotation
			JOINT RightFoot
			{
				OFFSET 0.708754 -10.717769 -1.945823
				CHANNELS 3 Xrotation Yrotation Zrotation
				JOINT RightToeBase
				{
					OFFSET -0.108140 -7.191069 7.372968
					CHANNELS 3 Xrotation Yrotation Zrotation
					JOINT RightToe_End
					{
						OFFSET -0.070227 0.081735 4.479403
						CHANNELS 3 Xrotation Yrotation Zrotation
						End Site
						{
							OFFSET 0.000000 0.000000 0.000000
						}
					}
				}
			}
		}
	}
}
MOTION
Frames: 5
Frame Time: 0.016667
-0.964887 33.891563 -0.467507 -5.479064 -12.100211 -1.231996 12.257026 1.541397 -1.481610 -3.993954 -8.493231 0.813504 0.000000 0.000000 0.000000 -5.969559 4.580067 -2.629902 11.255319 0.027613 0.080739 -1.984799 -0.580070 3.370286 -0.000000 0.000000 -0.000000 4.233554 -14.085167 -0.897005 0.000000 0.000000 0.000000 5.919386 4.805984 -79.119402 2.144035 -12.162859 0.993666 -12.199795 -3.041358 9.443719 -3.785187 8.458451 12.351805 7.455426 11.608370 -1.288630 1.129275 8.847030 5.185753 -0.000006 0.000002 -0.000004 2.384626 3.620113 -6.815639 0.018949 0.237209 -17.103733 0.036605 0.180343 -12.954497 -0.000001 -0.000001 -0.000002 -1.935803 5.644685 -11.386945 0.101771 0.660619 -24.767577 0.036801 0.028182 -9.474919 0.000000 -0.000000 -0.000003 -4.873194 10.020060 -7.875424 -0.044706 0.326931 -30.086092 0.078007 0.706493 -12.602630 -0.000000 -0.000001 -0.000002 3.456621 7.912203 4.381405 0.000000 0.000000 0.000000 4.870326 0.880827 78.811832 0.216075 17.510307 -0.089616 -4.831397 -4.161988 -10.247028 -0.464243 -8.992488 -6.084802 7.446398 -11.613908 1.293129 1.120005 -8.851353 -5.181761 0.000000 0.000001 -0.000003 2.362523 -3.634245 8.333193 0.012293 -0.255078 18.622482 0.037624 -0.182843 14.473389 0.000000 -0.000001 0.000001 -1.983640 -5.671247 13.530160 0.138084 -0.655761 26.914200 0.033807 -0.044595 11.621557 -0.000001 -0.000000 -0.000001 -4.977962 -10.100805 10.695761 -0.008977 -0.341851 32.924018 0.109175 -0.701102 15.434974 0.000000 -0.000002 0.000003 4.580626 20.856527 2.945908 18.292544 3.258822 0.400892 -17.398660 0.527254 -3.958155 -0.077387 -0.000316 -0.084729 -0.000000 -0.000002 0.000000 -7.577794 -7.972745 -13.468413 20.560469 -11.097693 0.718232 -4.564217 -2.549348 11.946083 -0.002830 0.000060 0.000571 0.000000 0.000005 0.000000 
-0.984477 33.875854 -0.492449 -5.457917 -11.923765 -1.234747 12.280672 1.554000 -1.573693 -4.009648 -8.492092 0.838626 0.000000 0.000000 0.000000 -5.990859 4.581319 -2.607014 11.197293 -0.037177 0.154593 -1.933325 -0.649536 3.461111 -0.000000 0.000000 0.000000 4.134852 -13.909760 -1.027313 0.000000 0.000000 0.000000 5.833297 4.715152 -78.638317 2.464680 -12.082305 0.839263 -11.970984 -2.884897 9.023004 -3.764292 8.410096 12.319239 7.372633 11.506811 -1.247454 1.230929 9.019808 5.174675 -0.000004 0.000002 -0.000000 2.321417 3.520242 -6.821850 0.019639 0.237891 -17.855247 0.039167 0.180599 -13.622944 0.000001 -0.000000 -0.000002 -1.898769 5.569507 -11.597247 0.101634 0.651977 -24.994616 0.039775 0.032100 -10.231511 0.000002 0.000000 -0.000000 -4.774491 9.989808 -8.066133 -0.044689 0.327379 -30.156084 0.079744 0.695943 -13.012787 0.000000 0.000000 0.000003 3.381236 7.803418 4.537107 0.000000 0.000000 0.000000 5.024060 1.620405 78.436123 0.420649 17.682397 -0.003086 -5.282830 -3.964290 -10.374960 -0.507290 -9.279076 -6.121827 7.209217 -11.240107 1.219512 1.088821 -8.566728 -5.010571 -0.000001 -0.000000 0.000001 2.356842 -3.533946 8.694488 0.011841 -0.249324 18.450684 0.037219 -0.177215 14.426917 -0.000000 0.000000 0.000003 -1.904655 -5.449613 13.745683 0.133090 -0.634502 26.482339 0.034006 -0.044872 11.674579 0.000001 0.000001 -0.000006 -4.780954 -9.668432 11.141323 -0.009674 -0.329675 32.368840 0.105747 -0.678799 15.435032 0.000000 0.000001 -0.000001 4.143935 20.853925 3.161332 18.816637 3.035955 0.372634 -17.548489 0.540496 -3.914871 -0.077476 -0.000327 -0.084535 0.000000 -0.000001 0.000000 -7.645746 -7.950142 -13.487785 20.759930 -11.108385 0.795851 -4.698434 -2.523927 11.933716 -0.002823 0.000022 0.000581 0.000000 0.000000 0.000000 
-1.003418 33.860416 -0.518565 -5.400428 -11.733169 -1.248296 12.258580 1.558937 -1.652530 -4.018685 -8.493298 0.862145 0.000000 0.000000 0.000000 -6.005033 4.580156 -2.583795 11.160980 -0.091042 0.230802 -1.910301 -0.714432 3.577411 -0.000000 0.000001 -0.000000 4.037694 -13.737905 -1.155439 0.000000 0.000000 0.000000 5.705730 4.632380 -78.161488 2.775897 -11.939522 0.681365 -11.739143 -2.759560 8.593618 -3.751124 8.349375 12.295314 7.298330 11.419276 -1.207312 1.342454 9.223514 5.172559 -0.000006 0.000002 -0.000004 2.257682 3.427915 -6.819776 0.023202 0.238456 -18.684478 0.041980 0.180822 -14.354462 0.000002 -0.000000 -0.000000 -1.862116 5.502065 -11.816809 0.101816 0.643610 -25.268203 0.043041 0.031624 -11.047274 0.000000 0.000000 -0.000002 -4.681525 9.963953 -8.246972 -0.044649 0.328109 -30.263342 0.081928 0.685925 -13.453930 0.000000 0.000001 -0.000001 3.306765 7.693744 4.690939 0.000000 0.000000 0.000000 5.157379 2.358712 78.058960 0.618391 17.828503 0.086454 -5.725249 -3.745777 -10.502799 -0.553301 -9.581178 -6.161853 6.959097 -10.845814 1.144352 1.055512 -8.266173 -4.830232 0.000002 -0.000000 -0.000000 2.350875 -3.428239 9.075729 0.011341 -0.243169 18.269288 0.036732 -0.171055 14.378108 0.000000 -0.000000 -0.000000 -1.823150 -5.215153 13.972266 0.127795 -0.612068 26.026634 0.034240 -0.045125 11.730569 0.000001 0.000000 0.000003 -4.580351 -9.209585 11.607393 -0.010361 -0.316792 31.782776 0.102027 -0.655244 15.435145 0.000000 -0.000001 -0.000003 3.613761 20.879856 3.414912 19.405293 2.732265 0.342723 -17.718960 0.583248 -3.843534 -0.077594 -0.000318 -0.084320 0.000000 -0.000002 0.000000 -7.715458 -7.934037 -13.480177 20.902592 -11.167392 0.860479 -4.801997 -2.475200 11.931474 -0.002797 0.000029 0.000572 0.000000 0.000002 0.000000 
-1.014772 33.843338 -0.551599 -5.270093 -11.502241 -1.289753 12.156976 1.543267 -1.681171 -4.021895 -8.515541 0.871766 0.000000 0.000000 0.000000 -6.003064 4.558940 -2.572198 11.158116 -0.114065 0.288823 -1.943717 -0.770572 3.768099 0.000000 -0.000001 0.000000 3.942070 -13.570000 -1.281387 0.000000 0.000000 0.000000 5.619340 4.574192 -77.694727 3.051953 -11.904676 0.522645 -11.509793 -2.582423 8.194529 -3.744033 8.279122 12.277969 7.230585 11.342613 -1.167960 1.461503 9.451072 5.177031 -0.000002 0.000005 -0.000002 2.193368 3.341378 -6.811396 0.027141 0.239052 -19.573121 0.044887 0.181016 -15.134419 0.000001 0.000001 0.000002 -1.826036 5.440488 -12.043525 0.101629 0.635397 -25.577284 0.043485 0.031137 -11.908569 -0.000001 0.000000 0.000003 -4.593008 9.941405 -8.420097 -0.044568 0.329005 -30.399437 0.084336 0.676270 -13.918817 0.000001 0.000001 0.000002 3.233188 7.582014 4.843407 0.000000 0.000000 0.000000 5.215428 3.086651 77.680575 0.821291 17.891001 0.179994 -6.140619 -3.482973 -10.626899 -0.602037 -9.897164 -6.204843 6.697315 -10.433186 1.068095 1.020230 -7.951264 -4.641821 -0.000000 0.000000 -0.000000 2.344617 -3.317803 9.474900 0.008475 -0.236765 18.079518 0.036258 -0.164558 14.326865 -0.000000 0.000000 0.000002 -1.739765 -4.969231 14.208437 0.122236 -0.588457 25.549625 0.034466 -0.045404 11.789176 -0.000001 -0.000000 -0.000000 -4.378354 -8.726590 12.090922 -0.011002 -0.303299 31.169500 0.098167 -0.630560 15.435225 0.000001 -0.000002 -0.000001 2.843773 20.927729 3.754190 20.207299 2.324975 0.307923 -17.967226 0.651185 -3.717586 -0.077674 -0.000337 -0.084090 0.000000 -0.000001 0.000000 -7.805652 -7.925472 -13.420792 20.937702 -11.303021 0.905484 -4.830735 -2.400851 11.945748 -0.002808 0.000065 0.000574 0.000000 0.000002 0.000000 
-1.022761 33.825657 -0.587650 -5.114574 -11.258942 -1.341262 12.028195 1.519896 -1.690605 -4.022318 -8.545087 0.875560 0.000000 0.000000 0.000000 -5.995742 4.530747 -2.565629 11.168334 -0.150681 0.337645 -2.005923 -0.852418 3.997330 -0.000000 -0.000001 0.000000 3.847711 -13.403315 -1.405377 0.000000 0.000000 0.000000 5.532349 4.526079 -77.237009 3.314021 -11.916841 0.364352 -11.280399 -2.382523 7.805448 -3.741378 8.202119 12.265809 7.167519 11.273414 -1.129257 1.585736 9.695404 5.185961 -0.000001 -0.000003 0.000001 2.128873 3.258858 -6.798527 0.031106 0.239669 -20.503681 0.048023 0.181167 -15.948220 0.000000 -0.000000 0.000000 -1.790234 5.382976 -12.275185 0.101221 0.627288 -25.911526 0.043966 0.030647 -12.801801 0.000000 0.000000 0.000001 -4.507515 9.921108 -8.587978 -0.043606 0.330008 -30.555500 0.086980 0.666836 -14.400312 0.000000 -0.000000 -0.000005 3.160107 7.466495 4.995547 0.000000 0.000000 0.000000 5.215064 3.771405 77.294997 1.040019 17.904631 0.279767 -6.510693 -3.215570 -10.744608 -0.653347 -10.225387 -6.250766 6.425229 -10.004305 0.991569 0.983026 -7.623603 -4.446380 -0.000001 0.000001 0.000002 2.338196 -3.203147 9.889823 0.005119 -0.228739 17.882315 0.035734 -0.157785 14.273688 -0.000000 0.000000 -0.000001 -1.655200 -4.712927 14.452957 0.116458 -0.563830 25.053800 0.034677 -0.045691 11.850092 -0.000000 0.000001 0.000000 -4.176948 -8.221552 12.589123 -0.011649 -0.289363 30.531919 0.094096 -0.604409 15.435329 0.000000 -0.000000 0.000001 1.997076 20.999400 4.117924 21.060332 1.845682 0.272804 -18.227675 0.742608 -3.554916 -0.078414 -0.000334 -0.082514 0.000000 -0.000001 0.000000 -7.903846 -7.919531 -13.345877 20.935237 -11.472588 0.938332 -4.832059 -2.309441 11.972943 -0.002814 0.000026 0.000569 0.000000 -0.000001 -0.000000 
